<svg width="19" height="22" viewBox="0 0 19 22" fill="none" xmlns="http://www.w3.org/2000/svg">
<path d="M18.0178 18.9938L16.4885 6.5293C16.4428 6.3043 16.2635 6.125 16.0385 6.125H12.7531V4.86464C12.7531 2.25428 11.3135 0.5 9.15313 0.5C6.99277 0.5 5.55313 2.25428 5.55313 4.86464V6.125H1.99885C1.77385 6.125 1.59455 6.3043 1.54885 6.5293L0.0195675 18.9938C-0.0700815 19.6231 0.154918 20.2981 0.559207 20.7481C0.963505 21.2438 1.59457 21.5128 2.22385 21.5128H15.7697C16.399 21.5128 17.0301 21.2421 17.4344 20.7481C17.8826 20.2999 18.1076 19.6249 18.018 18.9938H18.0178ZM6.45322 4.9084C6.45322 3.28768 7.17394 1.44376 9.15322 1.44376C11.1325 1.44376 11.8532 3.28948 11.8532 4.9084V6.16876H6.45322V4.9084ZM16.8032 20.1643C16.5325 20.435 16.1739 20.6143 15.8136 20.6143H2.22403C1.81973 20.6143 1.45939 20.435 1.23439 20.1643C1.00939 19.8936 0.874037 19.4893 0.919739 19.085L2.40334 7.06867H15.6324L17.1178 19.1291C17.1635 19.4895 17.0282 19.8938 16.8032 20.1645L16.8032 20.1643Z" fill="white"/>
</svg>
